<?xml version="1.0" standalone="no"?>
<!DOCTYPE svg PUBLIC "-//W3C//DTD SVG 20010904//EN"
 "http://www.w3.org/TR/2001/REC-SVG-20010904/DTD/svg10.dtd">
<svg version="1.0" xmlns="http://www.w3.org/2000/svg"
 width="450.000000pt" height="450.000000pt" viewBox="0 0 450.000000 450.000000"
 preserveAspectRatio="xMidYMid meet">
<metadata>
Created by potrace 1.14, written by Peter Selinger 2001-2017
</metadata>
<g transform="translate(0.000000,450.000000) scale(0.100000,-0.100000)"
fill="#000000" stroke="none">
<path d="M1979 3040 c-4 -3 -34 -5 -66 -4 -32 0 -66 -3 -75 -8 -12 -6 -18 -5
-18 2 0 6 -5 8 -12 3 -7 -4 -29 -8 -49 -9 -20 -1 -42 -4 -48 -8 -6 -4 -11 -2
-11 4 0 7 -6 8 -17 2 -10 -5 -47 -12 -83 -16 -36 -3 -78 -8 -95 -11 -16 -3
-40 -8 -52 -10 -13 -2 -28 -7 -34 -11 -8 -5 -9 -3 -4 6 5 9 4 11 -3 6 -13 -8
-35 -13 -92 -22 -19 -3 -50 -9 -69 -14 -19 -5 -38 -7 -43 -4 -4 3 -8 1 -8 -3
0 -5 -8 -9 -17 -10 -10 -1 -31 -4 -48 -8 -16 -4 -36 -7 -42 -7 -7 -1 -13 -4
-13 -8 0 -3 -8 -6 -17 -7 -20 -1 -38 -5 -103 -24 -25 -7 -48 -12 -52 -11 -5 1
-8 -3 -8 -10 0 -6 -3 -9 -6 -6 -6 7 -162 -45 -198 -65 -12 -6 -26 -12 -32 -13
-7 -1 -35 -14 -64 -28 -28 -14 -56 -26 -61 -26 -6 0 -15 -5 -22 -10 -19 -17
-127 -79 -127 -74 0 3 -6 -1 -14 -8 -8 -7 -26 -22 -41 -33 -15 -11 -53 -45
-86 -76 -32 -30 -59 -53 -59 -50 0 9 -79 -123 -81 -134 0 -5 -5 -15 -9 -20 -5
-6 -12 -24 -15 -40 -9 -39 -12 -155 -5 -155 3 0 7 -12 8 -27 1 -15 7 -32 12
-37 6 -6 10 -16 10 -22 0 -52 208 -265 283 -290 9 -4 17 -9 17 -13 0 -12 297
-157 313 -153 4 1 7 -3 7 -9 0 -5 4 -8 10 -4 5 3 17 1 27 -4 23 -12 53 -23 76
-28 10 -1 31 -10 48 -18 16 -9 29 -13 29 -11 0 3 18 -1 40 -9 22 -8 41 -14 43
-14 1 0 9 -2 17 -4 19 -7 133 -34 175 -42 62 -13 83 -17 110 -21 17 -3 36 -7
43 -10 16 -5 108 -17 135 -18 9 0 17 -3 17 -6 0 -3 17 -6 38 -5 20 0 41 -2 47
-4 5 -3 23 -6 40 -8 16 -1 55 -5 85 -8 30 -4 79 -7 108 -8 28 -1 52 -4 52 -7
0 -6 85 -9 355 -10 230 -2 366 3 384 14 6 4 11 2 11 -4 0 -6 5 -8 10 -5 6 3
36 9 68 11 72 6 110 10 192 20 36 4 73 7 83 8 9 0 17 3 17 6 0 4 10 6 23 5 12
-1 54 4 92 12 39 7 86 15 105 18 19 2 50 9 69 14 18 6 36 10 40 9 3 -1 13 1
21 5 12 4 124 32 173 43 4 1 9 3 12 4 3 1 10 4 15 5 6 1 11 3 13 5 3 2 40 11
55 12 6 1 12 6 12 11 0 6 3 8 6 4 3 -3 27 2 53 12 25 11 48 19 51 19 3 0 14 4
25 8 19 6 40 16 140 60 22 9 43 16 48 16 4 -1 7 3 7 10 0 6 3 9 6 5 3 -3 27 8
54 24 26 16 52 29 59 29 6 0 11 3 11 8 0 4 23 21 50 37 27 17 50 33 50 38 0 4
5 7 10 7 6 0 24 13 40 30 16 16 35 30 41 30 7 0 10 3 6 6 -3 3 8 20 25 37 81
85 127 196 122 294 -3 52 -9 93 -14 101 -2 1 -3 5 -4 10 -6 33 -146 232 -146
207 0 -3 -15 10 -32 28 -36 36 -169 127 -187 127 -6 0 -11 4 -11 8 0 7 -102
58 -200 99 -19 8 -44 19 -55 23 -54 23 -165 59 -165 54 0 -4 -6 -2 -12 3 -14
11 -68 27 -80 25 -5 -1 -8 2 -8 8 0 5 -7 7 -15 4 -8 -3 -20 -2 -27 2 -7 5 -17
9 -23 11 -5 1 -21 4 -35 7 -14 3 -36 9 -50 12 -14 3 -32 7 -40 9 -8 1 -22 5
-31 9 -9 4 -20 6 -25 5 -5 -2 -34 3 -64 9 -30 7 -66 14 -80 16 -14 3 -25 5
-25 6 0 2 -37 7 -95 14 -25 3 -63 8 -85 12 -22 3 -60 7 -85 9 -25 2 -45 4 -45
5 0 1 -22 4 -50 5 -27 2 -50 4 -50 5 0 0 -25 2 -55 3 -30 2 -60 6 -67 10 -6 4
-14 3 -17 -1 -4 -7 -40 -8 -56 -2 -12 5 -503 4 -511 0z"/>
<path d="M3088 1232 c-53 -4 -90 -49 -78 -93 5 -17 14 -37 21 -45 9 -11 8 -19
-6 -34 -27 -30 -26 -79 1 -109 19 -21 31 -24 78 -23 64 1 102 22 111 61 7 34
-8 76 -32 89 -17 10 -17 11 1 31 38 41 15 114 -37 122 -12 2 -39 3 -59 1z m86
-31 c9 -8 16 -22 16 -32 0 -23 -21 -69 -32 -69 -4 0 -8 -7 -8 -15 0 -8 7 -15
15 -15 9 0 22 -15 30 -32 11 -28 11 -37 -1 -60 -17 -32 -43 -41 -103 -35 -74
7 -100 59 -54 106 l29 29 -23 26 c-29 35 -29 61 1 91 19 19 33 23 69 21 25 -1
53 -8 61 -15z"/>
<path d="M3072 1177 c-15 -18 -5 -50 20 -66 37 -23 77 36 46 67 -16 16 -53 15
-66 -1z m48 -7 c16 -9 18 -14 8 -34 -9 -21 -13 -23 -29 -13 -19 12 -25 38 -12
50 8 9 11 9 33 -3z"/>
<path d="M3081 1049 c-38 -35 -21 -79 30 -79 54 0 65 65 15 88 -20 9 -27 7
-45 -9z m45 -7 c17 -12 23 -39 11 -51 -15 -15 -29 -14 -52 3 -19 14 -19 15 -1
35 21 23 26 24 42 13z"/>
<path d="M3255 1222 c-3 -7 -5 -44 -5 -81 0 -63 2 -69 25 -79 14 -6 25 -8 25
-3 0 5 11 9 25 9 13 0 22 -4 19 -9 -3 -5 2 -9 10 -9 17 0 19 -14 8 -40 -9 -19
-64 -25 -91 -11 -16 9 -21 8 -26 -8 -14 -46 29 -69 110 -57 69 11 105 72 80
134 -16 36 -43 53 -91 55 -29 2 -34 6 -32 22 2 12 10 19 21 19 9 -1 17 1 17 5
0 4 16 5 36 3 35 -4 35 -4 32 29 -3 31 -6 34 -36 35 -19 0 -31 -4 -29 -10 2
-6 16 -10 31 -10 20 1 26 -3 24 -15 -3 -12 -15 -16 -53 -15 -45 1 -51 -2 -57
-23 -10 -36 1 -53 33 -53 41 0 41 0 72 -22 33 -24 37 -73 7 -111 -35 -45 -150
-49 -150 -6 0 17 3 18 20 9 11 -6 20 -7 20 -3 0 4 5 1 10 -7 7 -11 10 -11 10
-2 0 7 5 10 11 7 17 -11 49 26 49 56 0 34 -12 42 -69 49 l-45 5 -2 67 c-3 66
-3 66 22 62 15 -3 24 0 24 9 0 17 -48 17 -55 -1z"/>
<path d="M3320 1231 c0 -5 5 -13 10 -16 6 -3 10 -2 10 4 0 5 -4 13 -10 16 -5
3 -10 2 -10 -4z"/>
<path d="M2611 1212 c-42 -22 -61 -43 -59 -68 3 -28 2 -28 33 -8 28 18 25 28
29 -81 3 -75 0 -83 -28 -78 -32 7 -41 -22 -15 -46 17 -15 27 -18 46 -10 14 5
29 7 34 3 5 -3 9 0 9 6 0 7 -13 10 -34 7 -33 -4 -66 6 -55 17 3 3 18 7 33 8
l27 2 -2 96 c-1 52 -4 98 -6 102 -2 4 -15 1 -28 -8 -14 -9 -25 -11 -29 -5 -9
13 56 61 82 61 24 0 22 9 25 -177 1 -60 8 -74 38 -68 10 2 20 -3 23 -11 3 -8
0 -14 -7 -15 -50 -3 -75 -19 -30 -19 38 0 61 25 46 48 -6 10 -20 16 -32 16
-11 -1 -21 4 -21 10 -5 150 -8 222 -9 228 -2 11 -41 5 -70 -10z"/>
<path d="M2803 1210 c-20 -16 -43 -74 -37 -95 1 -5 5 -22 8 -36 7 -31 49 -52
95 -47 32 3 35 -1 23 -30 -5 -15 -17 -18 -57 -18 -47 1 -50 -1 -53 -25 -2 -20
2 -28 20 -33 34 -9 88 -7 88 3 0 4 -17 7 -37 6 -36 -2 -63 9 -63 25 0 5 20 8
46 8 51 -1 70 12 83 60 9 30 8 32 -12 27 -67 -15 -79 -14 -103 10 -53 53 -16
148 58 148 76 0 96 -22 103 -114 4 -55 -12 -109 -43 -141 -14 -16 -21 -28 -14
-28 6 0 22 15 36 33 49 64 45 199 -7 248 -26 24 -104 24 -134 -1z"/>
<path d="M2043 1200 c-46 -28 -65 -62 -68 -124 -3 -71 22 -128 64 -149 38 -19
42 -6 4 14 -75 40 -68 223 10 248 58 18 135 11 121 -10 -3 -5 0 -9 7 -9 9 0
10 -3 3 -10 -8 -8 -19 -7 -37 1 -57 26 -110 -18 -110 -91 0 -56 20 -97 51
-106 31 -8 27 -8 70 1 35 7 42 -4 18 -28 -9 -8 -31 -13 -55 -12 -22 1 -38 -2
-35 -7 7 -11 57 -10 88 2 21 8 26 16 26 46 0 35 -1 36 -22 22 -75 -46 -148 22
-124 116 11 43 77 63 113 34 16 -13 32 -2 28 20 -2 9 -4 22 -4 28 -2 31 -105
40 -148 14z"/>
<path d="M2236 1208 c-15 -9 -13 -265 3 -281 6 -6 45 -11 86 -11 62 -1 78 2
85 15 17 31 -11 52 -63 47 l-47 -5 0 32 c0 27 5 34 25 37 13 3 26 0 29 -6 7
-16 46 32 39 49 -4 13 -43 21 -80 16 -13 -2 -14 -1 -18 36 -2 18 2 21 29 19
47 -4 81 8 80 27 -3 35 -4 38 -13 33 -5 -3 -7 -15 -4 -27 5 -17 2 -20 -18 -19
-13 1 -39 2 -56 1 -32 -1 -33 -2 -33 -44 0 -39 2 -43 23 -42 12 1 28 -3 36 -9
12 -9 13 -8 7 2 -6 10 -3 13 9 10 35 -6 28 -28 -8 -28 -59 0 -67 -7 -60 -53 6
-45 19 -60 43 -51 8 3 21 9 29 12 10 4 12 1 6 -9 -8 -12 -6 -12 8 0 9 7 17 12
18 10 8 -41 11 -40 -69 -37 l-77 3 -3 134 -3 133 49 -3 c28 -2 48 0 45 5 -3 4
4 5 16 1 13 -4 21 -2 21 5 0 12 -112 10 -134 -2z"/>
<path d="M1400 1203 c-32 -5 -66 -54 -62 -90 1 -16 3 -34 4 -41 1 -8 12 -18
25 -23 13 -5 23 -13 23 -18 0 -6 7 -8 15 -5 8 4 15 1 15 -5 0 -6 6 -11 14 -11
17 0 27 -23 16 -39 -5 -10 -19 -11 -51 -5 -70 13 -65 16 -60 -40 2 -31 114
-38 156 -10 42 27 52 98 20 134 -8 9 -35 26 -60 39 -41 20 -60 49 -35 52 6 1
16 2 23 3 6 1 22 -2 35 -8 17 -7 26 -6 31 3 10 15 3 49 -11 57 -14 9 -67 12
-98 7z m92 -27 c15 -22 7 -26 -32 -20 -33 5 -43 3 -54 -11 -14 -19 -11 -51 7
-62 6 -4 7 -1 3 8 -6 10 -4 10 6 -1 7 -8 20 -16 28 -18 8 -2 18 -9 22 -15 4
-7 8 -8 8 -3 0 5 9 -1 20 -14 62 -72 -26 -158 -124 -120 -25 9 -37 40 -15 40
5 0 8 -4 5 -9 -3 -4 6 -6 19 -3 17 3 25 0 25 -9 0 -12 2 -12 9 -1 4 8 11 13
15 13 24 -3 34 2 39 21 8 28 -6 44 -58 68 -22 10 -47 30 -54 43 -17 33 -6 81
22 95 27 14 99 12 109 -2z"/>
<path d="M1573 1204 c-12 -6 -8 -283 5 -296 4 -4 6 59 4 139 -4 128 -2 145 11
140 9 -3 18 -1 21 6 5 14 6 9 10 -148 3 -101 1 -122 -13 -132 -15 -11 -15 -12
1 -13 25 0 32 18 28 79 -1 31 -4 92 -5 136 -1 44 -3 83 -4 88 -1 8 -39 8 -58
1z"/>
<path d="M1693 1198 c-6 -8 -10 -66 -8 -147 1 -113 4 -135 19 -143 9 -5 25 -7
35 -3 15 5 17 16 14 93 l-3 87 20 -25 c11 -14 31 -49 46 -78 30 -61 66 -85
102 -69 24 11 24 12 18 127 -3 63 -5 128 -6 143 0 26 -3 28 -32 25 l-33 -3 2
-85 3 -85 -24 40 c-14 22 -35 59 -47 83 -12 23 -23 42 -23 42 -18 10 -75 8
-83 -2z m218 -7 c9 -39 18 -241 12 -257 -7 -20 -73 -5 -73 16 0 5 -18 40 -41
76 -22 37 -45 78 -50 92 -17 43 -23 14 -21 -93 2 -97 1 -105 -17 -105 -17 0
-19 9 -20 111 -1 61 -2 114 -3 118 -3 30 4 41 30 41 29 0 62 -29 62 -55 0 -8
4 -15 9 -15 4 0 23 -31 42 -70 19 -38 37 -69 40 -70 4 0 5 49 3 108 -4 92 -2
109 11 109 8 0 16 -3 16 -6z"/>
<path d="M2838 1173 c-15 -19 -14 -83 3 -93 7 -5 22 -6 33 -3 12 2 27 5 34 5
7 1 12 15 12 35 0 51 -54 89 -82 56z m61 -25 c11 -29 -4 -58 -28 -58 -23 0
-42 40 -29 63 13 24 47 21 57 -5z"/>
</g>
</svg>
